<svg width="66" height="66" viewBox="0 0 66 66" fill="none" xmlns="http://www.w3.org/2000/svg">
<rect width="66" height="66" rx="19" fill="#8C52FE"/>
<g clip-path="url(#clip0_2001_4)">
<path d="M55.9702 21.7182C56.5672 22.8942 56.8317 24.2603 56.4513 25.5289C56.0136 27.0829 54.8821 28.6822 53.2048 29.011C52.3498 29.1725 51.3891 28.8749 50.602 28.4608C49.8344 28.0559 48.6509 27.8617 48.2278 28.7849C47.8868 29.7391 48.5295 31.0197 48.9586 31.8107C49.6942 32.8614 51.3049 35.5496 53.5337 39.324C50.7374 41.0353 47.9419 42.7462 45.1464 44.4571C44.2451 44.9695 42.3325 45.1707 42.3397 43.637C42.4078 42.4429 43.3423 41.4066 43.2353 40.1728C43.1682 38.7594 42.2445 37.5678 40.9836 36.9628C39.2775 36.1586 37.2631 36.2933 35.5852 37.0754C35.5712 37.0814 35.5589 37.0889 35.5449 37.095C33.9087 37.9634 32.5854 39.4895 32.1976 41.3366C31.9175 42.709 32.3094 44.1649 33.3962 45.0708C34.3152 45.9013 35.7047 45.7796 36.6975 46.4462C37.9233 47.3658 36.6093 48.7705 35.6575 49.1815C32.6069 50.3812 29.558 51.5802 26.507 52.779C24.8449 48.7229 23.6745 45.8155 23.2812 44.5946C22.9112 43.7747 22.2786 42.4886 21.3122 42.1851C20.3216 41.9665 19.7614 43.0278 19.6212 43.8851C19.4757 44.7636 19.133 45.7091 18.4889 46.2945C17.2145 47.4351 15.2577 47.3732 13.756 46.7853C12.5152 46.3242 11.5864 45.2876 11.0095 44.1029C10.2686 42.6256 9.91072 40.8525 10.4391 39.2421C11.2031 36.8501 13.5596 35.9332 15.8529 36.8475C16.1003 36.9457 16.33 37.0652 16.5753 37.1633C17.216 37.4655 18.0743 37.3925 18.5479 36.8187C19.2709 35.9426 18.6807 34.4393 18.2239 33.492C16.6592 30.9616 15.0945 28.4313 13.5289 25.9013C15.7312 24.538 17.9331 23.1759 20.1355 21.8126C21.2048 21.1684 22.3976 20.4933 23.7087 20.6465C24.2464 20.7196 24.8141 21.0568 24.9574 21.6021C25.1907 22.5371 24.5441 23.4478 24.2542 24.3024C23.7788 25.7296 24.2607 27.4894 25.5076 28.4217C27.147 29.7111 29.6462 29.6547 31.3799 28.6622C33.2147 27.8777 34.7692 25.9171 34.7304 23.8301C34.7388 22.2729 33.628 20.8262 32.2038 20.3446C31.3478 20.061 30.2311 20.027 29.6275 19.2765C29.2797 18.834 29.3537 18.1772 29.6196 17.7034C30.2886 16.5653 31.5454 16.0203 32.704 15.5547C35.1191 14.6196 37.5326 13.6831 39.9468 12.7484C41.0192 15.5238 42.0906 18.2996 43.1621 21.0755C43.6417 22.0108 44.4827 23.389 45.6168 23.3411C46.3603 23.3098 46.9372 22.6679 47.083 21.9735C47.1524 21.7183 47.1958 21.463 47.2674 21.2057C47.9221 18.8227 50.0748 17.4956 52.4417 18.3287C54.0447 18.8797 55.2415 20.2356 55.9702 21.7182Z" fill="#7ED957"/>
</g>
<defs>
<clipPath id="clip0_2001_4">
<rect width="50.1842" height="32.0141" fill="white" transform="translate(4 28.0623) rotate(-23.5639)"/>
</clipPath>
</defs>
</svg>
