<svg width="472" height="148" viewBox="0 0 472 148" fill="none" xmlns="http://www.w3.org/2000/svg">
<g clip-path="url(#clip0_271_731)">
<path d="M102.322 102.786H35.1252C35.4831 108.277 37.0342 112.353 39.7545 115.04C42.4748 117.726 45.9349 119.069 50.1585 119.069C56.0764 119.069 60.3001 116.454 62.8295 111.199H100.675C99.1005 118.103 96.0461 124.277 91.5361 129.697C87.0022 135.117 81.2991 139.383 74.4267 142.493C67.5543 145.604 59.9421 147.136 51.6141 147.136C41.5919 147.136 32.6912 145.062 24.912 140.867C17.1328 136.696 11.024 130.734 6.63335 122.981C2.21879 115.228 0.0234375 106.109 0.0234375 95.622C0.0234375 85.1354 2.19492 76.0393 6.5379 68.357C10.8809 60.6747 16.9419 54.7363 24.745 50.5652C32.5241 46.3942 41.4964 44.2969 51.638 44.2969C61.7796 44.2969 70.5371 46.3235 78.2685 50.3767C86 54.4299 92.0372 60.2505 96.3802 67.815C100.723 75.3794 102.895 84.2871 102.895 94.5615C102.895 97.2951 102.704 100.052 102.346 102.786H102.322ZM66.6475 85.7953C66.6475 81.5064 65.1919 78.1366 62.3045 75.6858C59.4172 73.235 55.7901 72.0096 51.4471 72.0096C47.1041 72.0096 43.5486 73.1643 40.7567 75.4973C37.9887 77.8302 36.1751 81.2472 35.3161 85.7717H66.6475V85.7953Z" fill="#E1B0C1"/>
<path d="M148.09 116.736H191.377V145.887H108.979V118.174L149.355 74.7195H109.337V45.5693H189.921V73.2821L148.09 116.736Z" fill="#E1B0C1"/>
<path d="M299.904 102.786H232.707C233.065 108.277 234.616 112.353 237.337 115.04C240.057 117.726 243.517 119.069 247.741 119.069C253.658 119.069 257.882 116.454 260.412 111.199H298.257C296.683 118.103 293.628 124.277 289.118 129.697C284.584 135.117 278.881 139.383 272.009 142.493C265.136 145.604 257.524 147.136 249.196 147.136C239.174 147.136 230.273 145.062 222.494 140.867C214.715 136.696 208.606 130.734 204.215 122.981C199.801 115.228 197.605 106.109 197.605 95.622C197.605 85.1354 199.777 76.0393 204.12 68.357C208.463 60.6747 214.524 54.7363 222.327 50.5652C230.106 46.3942 239.078 44.2969 249.22 44.2969C259.362 44.2969 268.119 46.3235 275.851 50.3767C283.582 54.4299 289.619 60.2505 293.962 67.815C298.305 75.3794 300.477 84.2871 300.477 94.5615C300.477 97.2951 300.286 100.052 299.928 102.786H299.904ZM264.23 85.7953C264.23 81.5064 262.774 78.1366 259.887 75.6858C256.999 73.235 253.372 72.0096 249.029 72.0096C244.686 72.0096 241.131 73.1643 238.339 75.4973C235.571 77.8302 233.757 81.2472 232.898 85.7717H264.23V85.7953Z" fill="#E1B0C1"/>
<path d="M406.688 56.1972C413.56 63.8795 417.021 74.2953 417.021 87.3976V145.887H381.513V92.0635C381.513 86.3372 380.01 81.8362 376.979 78.5606C373.949 75.2851 369.916 73.6355 364.833 73.6355C359.751 73.6355 355.36 75.2851 352.329 78.5606C349.323 81.8362 347.795 86.3372 347.795 92.0635V145.887H312.288V45.5693H347.795V59.8734C350.945 55.3489 355.145 51.6727 360.466 48.8684C365.788 46.0642 371.873 44.6738 378.745 44.6738C390.462 44.6738 399.744 48.515 406.64 56.2208L406.688 56.1972Z" fill="#E1B0C1"/>
<path d="M436.23 31.1712C432.436 27.7778 430.527 23.5125 430.527 18.3752C430.527 13.238 432.436 8.78419 436.23 5.3201C440.025 1.856 445.083 0.135742 451.359 0.135742C457.635 0.135742 462.503 1.856 466.297 5.3201C470.091 8.78419 472 13.1202 472 18.3752C472 23.6303 470.091 27.7542 466.297 31.1712C462.503 34.5646 457.516 36.2613 451.359 36.2613C445.203 36.2613 440.048 34.5646 436.23 31.1712ZM468.922 45.5695V145.887H433.415V45.5695H468.922Z" fill="#E1B0C1"/>
</g>
<defs>
<clipPath id="clip0_271_731">
<rect width="472" height="147" fill="white" transform="translate(0 0.135742)"/>
</clipPath>
</defs>
</svg>
