<svg width="75" height="62" viewBox="0 0 75 62" fill="none" xmlns="http://www.w3.org/2000/svg">
<path d="M73.9559 15.4014C74.7967 17.3001 75.0959 19.4754 74.3841 21.4428C73.5571 23.8554 71.6331 26.2876 68.9563 26.672C67.5916 26.8584 66.1016 26.3131 64.8952 25.5991C63.7182 24.9008 64.9578 26.0836 61.1177 25.9208C60.4959 27.3958 61.3992 29.4671 62.0073 30.746C63.0769 32.4603 65.386 36.8226 68.577 42.9444C64.0134 45.4178 59.4518 47.8931 54.8902 50.3665C53.4237 51.1021 50.3872 51.2669 50.5299 48.8523C50.7411 46.9771 52.3073 45.4178 52.2447 43.4661C52.2623 41.234 50.9073 39.2843 48.9696 38.2309C46.3457 36.8285 43.1547 36.8815 40.4369 37.9799C40.4134 37.9877 40.3938 37.9975 40.3723 38.0073C37.7132 39.245 35.492 41.5458 34.7197 44.4233C34.1585 46.5633 34.6493 48.8876 36.2878 50.4018C37.6663 51.7827 39.8698 51.7023 41.3793 52.8301C43.2348 54.3758 41.0371 56.4863 39.4983 57.0571C34.5789 58.7047 29.6594 60.3524 24.74 62C22.4699 55.4781 20.8744 50.8039 20.3583 48.8503C19.846 47.5303 18.9583 45.4531 17.4586 44.898C15.912 44.4743 14.9363 46.1023 14.6411 47.442C14.336 48.8131 13.7123 50.2763 12.6447 51.1472C10.5331 52.8439 7.4496 52.5908 5.13066 51.5434C3.21059 50.7196 1.83604 49.0131 1.02656 47.0987C-0.0136375 44.7136 -0.424243 41.891 0.549479 39.3961C1.96313 35.6889 5.76417 34.4296 9.30515 36.0537C9.68838 36.2283 10.0403 36.4342 10.4177 36.6088C11.4031 37.1364 12.764 37.0894 13.5618 36.2224C14.2891 35.4319 13.5852 33.9314 13.3369 32.784C13.29 32.5662 13.945 32.6682 13.8824 32.4564C13.724 31.915 13.5246 31.3992 13.3408 30.9578C11.0903 26.8486 8.84175 22.7373 6.58929 18.628C10.1889 16.6529 13.7827 14.6816 17.3784 12.7083C19.1225 11.7786 21.0661 10.8096 23.121 11.1549C23.9638 11.3118 24.8299 11.8884 25.0098 12.7593C25.2953 14.2501 24.1964 15.6349 23.6646 16.9588C22.7906 19.1694 23.3967 21.9802 25.2836 23.5474C27.7589 25.7089 31.7105 25.8188 34.532 24.3928C37.4961 23.3022 40.1201 20.3365 40.2413 17.0451C40.3899 14.5914 38.7612 12.2239 36.5557 11.353C35.228 10.8371 33.4703 10.6959 32.5826 9.46604C32.0722 8.7403 32.2443 7.71249 32.7077 6.98674C33.8613 5.24692 35.8948 4.48784 37.764 3.84644C41.6589 2.5656 45.5499 1.2828 49.4428 0C50.8936 4.45645 52.3444 8.91683 53.7933 13.3733C54.4698 14.8856 55.6781 17.1236 57.4711 17.1373C58.6482 17.1471 59.6141 16.1801 59.9035 15.0994C60.0364 14.7032 60.1264 14.305 60.2613 13.9048C61.5029 10.2035 65.0165 8.28131 68.6806 9.78183C71.1638 10.7763 72.9353 13.0084 73.9559 15.4014Z" fill="#7ED957"/>
<path d="M40.9061 26.7721C40.5698 27.1761 40.7497 27.8332 41.174 28.1C41.3539 28.2196 41.6081 28.3863 41.9385 28.5864C42.1282 28.7021 42.2416 28.9101 42.2357 29.1317C42.2025 30.5851 42.1673 32.0406 42.134 33.494C40.3743 31.7012 38.6126 29.9104 36.8529 28.1176C35.7325 28.5531 34.6121 28.9865 33.4918 29.422C34.5026 30.4125 35.5194 31.4227 36.54 32.4505C37.504 33.4214 38.4503 34.3904 39.3791 35.3515C40.9902 34.7121 41.1075 34.667 42.7186 34.0275C42.7499 32.0484 42.7812 30.0693 42.8105 28.0921C42.8184 27.5939 42.6952 27.0996 42.4371 26.6759C42.0793 25.9541 41.3167 26.3445 40.9061 26.7721Z" fill="#8C52FE"/>
<path d="M47.2744 27.6449C46.8912 26.5739 46.6018 25.5599 46.3808 24.6301C45.3113 25.0322 44.2437 25.4343 43.1742 25.8364C43.6415 26.7662 44.1088 27.7979 44.5507 28.9316C45.106 30.3596 45.5225 31.7032 45.8373 32.9252C46.9224 32.5172 48.0057 32.1092 49.0908 31.7012C48.471 30.5616 47.8336 29.2082 47.2744 27.6449Z" fill="#8C52FE"/>
<path d="M43.1056 20.6616L42.0679 22.9506L44.3497 23.9917L45.3874 21.7026L43.1056 20.6616Z" fill="#8C52FE"/>
<path d="M54.765 21.5624C54.4287 21.9665 54.6086 22.6236 55.0329 22.8903C55.2128 23.01 55.4669 23.1767 55.7974 23.3768C55.987 23.4925 56.1005 23.7004 56.0946 23.9221C56.0613 25.3755 56.0262 26.8309 55.9929 28.2844C54.2332 26.4916 52.4715 24.7008 50.7117 22.908C49.5914 23.3434 48.471 23.7769 47.3506 24.2124C48.3615 25.2029 49.3783 26.2131 50.3989 27.2409C51.3629 28.2118 52.3092 29.1808 53.2379 30.1419C54.8491 29.5024 54.9664 29.4573 56.5775 28.8179C56.6088 26.8388 56.6401 24.8596 56.6694 22.8825C56.6773 22.3843 56.5541 21.89 56.296 21.4663C55.9382 20.7445 55.1756 21.1329 54.765 21.5624Z" fill="#8C52FE"/>
<path d="M24.8358 40.1885C24.3235 40.11 23.9755 39.8472 23.6196 39.5745C23.121 39.1901 22.9939 38.9469 22.6596 38.6173C21.6037 37.5738 20.2135 37.3659 19.9007 37.3189C19.5253 37.262 18.9368 37.2188 18.2133 37.3483C18.5926 37.2541 19.3826 37.005 20.0982 36.3107C20.3954 36.0204 21.0289 35.4064 21.1873 34.3904C21.3515 33.341 20.849 32.117 19.9281 31.511C18.6141 30.6479 16.9365 31.0147 15.562 31.5051C13.6966 32.2053 11.8313 32.9075 9.96796 33.6078C10.5545 34.5944 10.9065 35.581 11.4559 36.7853C12.7855 39.6942 13.3525 42.0068 14.2089 44.8156C15.4896 44.335 16.7703 43.8525 18.051 43.3719C17.6209 42.605 17.1829 41.7302 16.7703 40.7495C16.4027 39.8766 16.1114 39.0469 15.8768 38.2839C16.1837 38.1505 16.7234 37.9759 17.2611 38.176C17.5837 38.2957 17.7753 38.5016 17.9454 38.688C19.5272 40.4239 19.6406 40.6161 20.0552 40.8887C20.2057 40.9868 20.7786 41.3497 21.6194 41.4831C22.3506 41.5988 22.9568 41.4889 23.3126 41.3967C24.2414 41.0476 25.1701 40.6985 26.0989 40.3493C26.052 40.2473 26.005 40.1473 25.9561 40.0453C25.7352 40.1336 25.3266 40.263 24.8358 40.1885ZM17.136 37.0874C16.5689 37.6503 15.9198 37.7837 15.693 37.819C15.0262 36.0949 14.3595 34.3708 13.6927 32.6466C13.9137 32.527 14.2402 32.3779 14.6567 32.2838C14.9539 32.2171 15.4055 32.1151 15.867 32.221C16.8036 32.4328 17.2924 33.3822 17.4918 33.7686C17.6776 34.1295 18.0412 34.8356 17.8633 35.734C17.7206 36.4656 17.2963 36.9285 17.136 37.0874Z" fill="#8C52FE"/>
<path d="M28.7952 31.1285C28.6955 31.1599 28.5977 31.1932 28.498 31.2305C28.3455 31.2874 28.1988 31.3501 28.0541 31.4168C25.8271 32.4584 24.607 34.6689 25.305 36.5382C26.048 38.5271 28.6837 39.3745 31.1884 38.433C31.8161 38.1976 32.3753 37.872 32.8504 37.4856C33.9825 36.5637 34.6356 35.2946 34.5749 34.0628L34.1155 34.0903C34.178 35.2338 33.5367 36.4244 32.4339 37.2659C32.039 37.566 31.5502 37.7229 31.0555 37.6915C31.0535 37.6915 31.0496 37.6915 31.0476 37.6915C30.6527 37.666 29.8021 37.362 29.5089 36.9187C29.0513 36.4342 28.5997 35.685 28.2653 34.7945L34.1174 32.5937C33.1828 31.0598 30.9714 30.4322 28.7952 31.1285ZM28.1324 34.3904C27.9486 33.8118 27.8449 33.2586 27.8176 32.7741C27.7921 32.3014 28.0639 31.8679 28.4999 31.6895C28.5488 31.6698 28.5997 31.6502 28.6505 31.6306C28.6525 31.6306 28.6544 31.6287 28.6564 31.6287C29.0963 31.4639 29.5871 31.6208 29.8764 31.9915C30.1756 32.374 30.4611 32.8644 30.7035 33.4234L28.1324 34.3904Z" fill="#8C52FE"/>
<path d="M65.21 24.942C64.815 25.2421 64.3262 25.399 63.8315 25.3677C63.8296 25.3677 63.8257 25.3677 63.8237 25.3677C63.4288 25.3422 62.5782 25.0381 62.2849 24.5948C61.8274 24.1104 61.3757 23.3611 61.0414 22.4706L66.8935 20.2698C65.955 18.7399 63.7436 18.1122 61.5673 18.8065C61.4676 18.8379 61.3699 18.8713 61.2701 18.9085C61.1176 18.9654 60.971 19.0282 60.8263 19.0949C58.5992 20.1364 57.3792 22.347 58.0772 24.2163C58.8202 26.2052 61.4559 27.0525 63.9606 26.111C64.5882 25.8757 65.1474 25.5501 65.6226 25.1637C66.7547 24.2418 67.4077 22.9727 67.3471 21.7409L66.8876 21.7684C66.9541 22.9119 66.3108 24.1025 65.21 24.942ZM60.5897 20.4522C60.5643 19.9795 60.8361 19.546 61.2721 19.3675C61.321 19.3479 61.3718 19.3283 61.4227 19.3087C61.4246 19.3087 61.4266 19.3067 61.4285 19.3067C61.8685 19.142 62.3592 19.2989 62.6486 19.6696C62.9478 20.0521 63.2332 20.5424 63.4757 21.1015L60.9045 22.0685C60.7207 21.4898 60.6171 20.9347 60.5897 20.4522Z" fill="#8C52FE"/>
<path d="M11.3777 9.65434C11.0648 9.96033 11.1548 10.4193 10.8908 10.739C10.797 10.8724 10.7012 10.9646 10.6269 11.0921C10.5741 11.1725 10.5799 11.1607 10.533 11.2098C10.402 11.3255 10.2299 11.1764 10.0833 11.1352C9.96989 11.0921 9.79783 11.0784 9.72158 11.0293C9.61404 10.9744 9.62381 10.794 9.64532 10.6468C9.65705 10.5272 9.66096 10.4193 9.62577 10.3055C9.41655 9.62099 9.06461 8.96194 8.94534 8.24601C8.86713 7.84194 8.93556 7.46534 8.77523 7.14562C8.49172 6.51207 7.82693 6.96321 8.08111 7.52222L8.08893 7.53988C8.37635 8.1087 8.50345 8.9384 8.47998 9.61315C8.47021 9.75045 8.52104 9.89168 8.39004 9.96817C8.33725 9.99563 8.26295 9.9976 8.20429 9.99956C8.05765 9.99956 7.91882 10.0937 7.81715 10.2035C7.71156 10.3154 7.67833 10.4801 7.70961 10.6429C7.71939 10.7116 7.75654 10.8057 7.70961 10.8548C7.63335 10.9254 7.42805 10.8999 7.32442 10.9705C7.11325 11.0686 7.0937 11.4275 6.91968 11.5648C6.52472 11.8198 6.57751 12.2592 6.86494 12.6613C6.98812 12.83 7.16018 12.8888 7.32638 12.9928C7.76436 13.2713 8.0029 13.5792 8.18865 13.8166C8.30597 13.9715 8.39395 14.1324 8.55037 14.2265C9.09003 14.5305 9.5065 14.1363 9.8604 13.744C9.98945 13.6185 10.1459 13.5361 10.2945 13.4419C10.4822 13.3223 10.6132 13.1222 10.7051 12.9339C10.9358 12.5397 11.2174 12.2768 11.4481 11.861C11.6123 11.6256 11.5654 11.3569 11.6182 11.0882C11.6534 10.9391 11.7296 10.8567 11.8157 10.7194C11.9525 10.488 12.0601 10.2899 12.1031 9.98387C12.2419 9.48565 11.7042 9.34247 11.3777 9.65434Z" fill="#FF2222"/>
<path d="M4.55382 11.3373L4.54209 11.3569C4.43064 11.6178 4.75521 11.7276 4.94487 11.8237C5.18146 11.9865 5.46106 12.0669 5.74848 12.1513C6.12976 12.3082 6.46216 12.012 6.17669 11.6903C5.93032 11.4373 4.70633 11.0646 4.55382 11.3373Z" fill="#FF2222"/>
<path d="M7.52385 9.71124L7.58251 9.71517C7.6744 9.71909 7.75652 9.64652 7.75652 9.55433C7.7663 8.99139 7.37525 8.74032 7.16603 8.07538C7.08 7.80078 6.88448 7.46929 6.73979 7.20645C6.57946 6.82397 6.10237 6.79847 6.11215 7.22803C6.12388 7.75762 6.66549 8.39706 7.34787 9.6014C7.38307 9.66417 7.44955 9.70732 7.52385 9.71124Z" fill="#FF2222"/>
<path d="M6.64987 10.5821L6.7007 10.5684C6.78087 10.5468 6.83171 10.4605 6.8102 10.3781C6.67724 9.87796 6.27641 9.76027 5.92837 9.22871C5.78369 9.00903 5.53341 8.76776 5.3418 8.57358C5.10716 8.27936 4.69069 8.38528 4.80801 8.76384C4.95074 9.22871 5.58034 9.64846 6.46998 10.5311C6.51691 10.5802 6.58534 10.5998 6.64987 10.5821Z" fill="#FF2222"/>
<path d="M16.6608 14.4874C16.2678 14.2991 15.8689 14.5404 15.4779 14.403C15.3195 14.3599 15.2022 14.303 15.0575 14.2756C14.9636 14.254 14.9773 14.254 14.9148 14.2265C14.7623 14.1422 14.8424 13.9303 14.8307 13.7773C14.8326 13.6538 14.7857 13.487 14.8053 13.3988C14.819 13.2772 14.993 13.2262 15.1357 13.1948C15.253 13.1654 15.3527 13.132 15.4485 13.0594C16.0175 12.626 16.5122 12.0689 17.1418 11.71C17.4918 11.4981 17.8692 11.4314 18.1136 11.1706C18.6102 10.6861 17.9572 10.2153 17.5231 10.6468L17.5094 10.6606C17.0753 11.1274 16.3421 11.5315 15.7027 11.7433C15.5698 11.7806 15.4564 11.8767 15.3391 11.7806C15.2941 11.7394 15.2667 11.6707 15.2452 11.6158C15.1963 11.4765 15.0595 11.3785 14.9226 11.3216C14.7818 11.2608 14.6156 11.2843 14.4748 11.3726C14.4142 11.4059 14.338 11.4726 14.2773 11.4471C14.1854 11.3981 14.1385 11.198 14.0368 11.1235C13.8726 10.9587 13.5304 11.0627 13.3408 10.9469C12.9654 10.6625 12.5724 10.8646 12.2967 11.2745C12.1813 11.4491 12.1852 11.6315 12.1442 11.8237C12.0347 12.3317 11.8274 12.6632 11.669 12.9202C11.5654 13.083 11.4442 13.2203 11.4109 13.4007C11.3112 14.0127 11.8235 14.2716 12.3123 14.4678C12.4746 14.5462 12.6036 14.6659 12.7444 14.7718C12.9223 14.9071 13.1531 14.9621 13.3623 14.9836C13.81 15.0641 14.1542 15.2406 14.6215 15.3132C14.8991 15.3857 15.1338 15.2504 15.4036 15.2072C15.5561 15.1896 15.6597 15.2327 15.8181 15.2661C16.0821 15.3171 16.305 15.3485 16.6061 15.2837C17.1164 15.2445 17.0656 14.6894 16.6608 14.4874Z" fill="#FF9900"/>
<path d="M12.7386 8.64024L12.7171 8.63632C12.4335 8.62063 12.4433 8.96585 12.4199 9.17572C12.3475 9.45425 12.369 9.74651 12.3905 10.0447C12.3749 10.4585 12.7659 10.6704 12.9693 10.2898C13.1179 9.97208 13.0455 8.69124 12.7386 8.64024Z" fill="#FF9900"/>
<path d="M15.2823 10.8783L15.2999 10.9352C15.3273 11.0235 15.4231 11.0745 15.5111 11.045C16.041 10.8607 16.1426 10.4056 16.6921 9.97996C16.9189 9.80342 17.1633 9.50528 17.3588 9.27971C17.6619 8.99726 17.5231 8.53828 17.1222 8.69519C16.6315 8.88742 16.2189 9.61904 15.3253 10.6743C15.2765 10.7292 15.2608 10.8077 15.2823 10.8783Z" fill="#FF9900"/>
<path d="M14.1659 10.3546L14.1952 10.3977C14.2422 10.4664 14.3399 10.484 14.4103 10.435C14.8327 10.1369 14.8053 9.71908 15.1827 9.2091C15.3371 8.99726 15.4779 8.67754 15.5933 8.43235C15.7888 8.11067 15.5463 7.75369 15.2315 7.99495C14.8444 8.29113 14.6684 9.02668 14.1503 10.1683C14.1229 10.2291 14.1268 10.2997 14.1659 10.3546Z" fill="#FF9900"/>
<path d="M13.5598 20.7484C13.6243 20.3149 13.2743 20.005 13.29 19.5892C13.2841 19.4264 13.3037 19.295 13.2861 19.1478C13.2802 19.0517 13.2822 19.0655 13.29 18.9968C13.3252 18.8262 13.552 18.8399 13.6928 18.783C13.8101 18.7477 13.9548 18.6555 14.0447 18.6457C14.164 18.6222 14.2637 18.7732 14.336 18.9027C14.3986 19.0066 14.4612 19.0929 14.557 19.1616C15.1377 19.5794 15.8162 19.8893 16.3441 20.3855C16.6511 20.6582 16.8231 21.0014 17.1438 21.1564C17.7519 21.4879 18.008 20.7249 17.4684 20.4365L17.4527 20.4267C16.8818 20.1482 16.2776 19.5656 15.8885 19.0145C15.8142 18.8987 15.6871 18.8183 15.7458 18.6771C15.7712 18.6222 15.8299 18.5771 15.8748 18.5398C15.9921 18.4515 16.0449 18.2926 16.0606 18.1436C16.0762 17.9906 16.0039 17.8376 15.8807 17.7297C15.8318 17.6807 15.7458 17.6277 15.7516 17.561C15.7712 17.4571 15.9491 17.3551 15.9882 17.2354C16.0977 17.0295 15.8963 16.7313 15.9511 16.5156C16.1114 16.0723 15.8025 15.7545 15.3313 15.6113C15.1318 15.5525 14.9598 15.6094 14.7623 15.629C14.2461 15.6741 13.8707 15.5741 13.5794 15.4976C13.3936 15.4466 13.2254 15.372 13.0456 15.3916C12.4336 15.4779 12.3378 16.0448 12.2947 16.5724C12.2674 16.7509 12.1931 16.9118 12.1325 17.0765C12.0562 17.2864 12.0718 17.5238 12.1129 17.7297C12.1677 18.1828 12.1012 18.5653 12.1716 19.0341C12.1833 19.3224 12.3827 19.5048 12.504 19.752C12.5665 19.8912 12.5548 20.005 12.5704 20.1658C12.6017 20.4346 12.635 20.6562 12.7875 20.9269C12.9732 21.4075 13.4875 21.1956 13.5598 20.7484Z" fill="#BB33AA"/>
<path d="M17.9689 15.2602L17.967 15.2386C17.8985 14.9621 17.572 15.0739 17.3648 15.1131C17.0793 15.1268 16.8075 15.2327 16.5279 15.3406C16.129 15.4485 16.043 15.8859 16.4653 15.9683C16.8134 16.0173 18.0119 15.5701 17.9689 15.2602Z" fill="#BB33AA"/>
<path d="M16.5905 18.3593L16.5416 18.3927C16.4653 18.4456 16.4458 18.5515 16.4986 18.6261C16.829 19.0792 17.2944 19.0419 17.8614 19.444C18.096 19.6088 18.4519 19.7559 18.7256 19.8755C19.0834 20.0815 19.4804 19.8128 19.2125 19.4754C18.884 19.0615 18.0647 18.883 16.7958 18.3377C16.7293 18.3103 16.6511 18.3181 16.5905 18.3593Z" fill="#BB33AA"/>
<path d="M16.7586 17.1354L16.7254 17.1765C16.6745 17.2413 16.6863 17.3413 16.7527 17.3943C17.1614 17.712 17.5505 17.561 18.1488 17.7709C18.3952 17.8572 18.7412 17.8964 19.0111 17.9337C19.3748 18.0259 19.6426 17.6885 19.32 17.457C18.925 17.1746 18.1703 17.2236 16.9307 17.0628C16.8642 17.0569 16.7997 17.0824 16.7586 17.1354Z" fill="#BB33AA"/>
<path d="M6.68509 19.7736C7.11916 19.7245 7.32837 19.3087 7.73311 19.2185C7.88954 19.1714 8.02054 19.1577 8.15741 19.1028C8.2493 19.0714 8.23757 19.0773 8.30405 19.0674C8.47807 19.0576 8.52109 19.2812 8.61298 19.4029C8.67555 19.5088 8.80264 19.6245 8.83393 19.7088C8.88672 19.8187 8.76549 19.954 8.65991 20.058C8.57583 20.1443 8.50935 20.2267 8.46634 20.3385C8.21215 21.0073 8.08506 21.7448 7.74094 22.3823C7.55519 22.7491 7.26972 23.0041 7.20128 23.3552C7.03509 24.03 7.83674 24.0849 7.97948 23.4866L7.98339 23.469C8.10461 22.8433 8.51522 22.1097 8.94538 21.5919C9.03728 21.4899 9.0842 21.3467 9.2328 21.3663C9.29146 21.3761 9.35207 21.4212 9.399 21.4565C9.51436 21.5467 9.68056 21.5585 9.82916 21.535C9.97971 21.5114 10.1088 21.4036 10.1831 21.2545C10.2163 21.1937 10.2476 21.0976 10.3121 21.0858C10.4157 21.0779 10.5624 21.2251 10.6875 21.2329C10.9143 21.2859 11.149 21.0152 11.3719 21.0132C11.8392 21.0544 12.0679 20.6758 12.0875 20.1816C12.0934 19.9717 11.9936 19.8206 11.9272 19.6343C11.7531 19.1459 11.7531 18.7536 11.7531 18.4515C11.7551 18.2574 11.7844 18.0769 11.7199 17.9063C11.4814 17.3335 10.9104 17.3865 10.3923 17.4787C10.2124 17.4983 10.0403 17.4669 9.86435 17.4492C9.64341 17.4277 9.41855 17.5042 9.22889 17.5963C8.80655 17.765 8.42137 17.7984 7.98534 17.9847C7.71161 18.0691 7.58451 18.3103 7.37726 18.4908C7.25798 18.5869 7.14654 18.6045 6.99402 18.6595C6.74375 18.7575 6.53845 18.8478 6.31555 19.0635C5.89908 19.3734 6.23538 19.8187 6.68509 19.7736Z" fill="#0099DD"/>
<path d="M13.0964 22.6569L13.116 22.6491C13.3643 22.5118 13.1746 22.2254 13.0847 22.0332C12.9987 21.7586 12.8266 21.5232 12.6506 21.28C12.4453 20.921 12.0015 20.9485 12.0308 21.38C12.0738 21.7272 12.809 22.7766 13.0964 22.6569Z" fill="#0099DD"/>
<path d="M9.75876 22.1058L9.71379 22.0666C9.6434 22.0058 9.53586 22.0136 9.47721 22.0862C9.12526 22.5236 9.27777 22.9629 9.03727 23.6181C8.93755 23.8868 8.88672 24.2712 8.83979 24.5674C8.73225 24.9676 9.09202 25.2834 9.34816 24.9381C9.66296 24.5145 9.62776 23.675 9.82915 22.3039C9.84088 22.2294 9.81351 22.1548 9.75876 22.1058Z" fill="#0099DD"/>
<path d="M10.9828 21.9587L10.9339 21.9371C10.8577 21.9037 10.7638 21.941 10.7306 22.0195C10.5292 22.4961 10.7716 22.8354 10.7227 23.471C10.7012 23.7318 10.7521 24.079 10.7834 24.3477C10.7873 24.7243 11.1803 24.8989 11.3211 24.5262C11.4931 24.0712 11.2546 23.3513 11.0923 22.1077C11.0845 22.0411 11.0434 21.9842 10.9828 21.9587Z" fill="#0099DD"/>
<path d="M5.38872 13.132C5.57056 13.5302 6.032 13.5988 6.24512 13.9558C6.33898 14.0892 6.39372 14.2108 6.48758 14.3246C6.54624 14.403 6.53646 14.3913 6.56579 14.454C6.63031 14.6168 6.43283 14.7286 6.34484 14.8542C6.26468 14.9463 6.19429 15.1052 6.1239 15.1621C6.03591 15.2465 5.86971 15.1758 5.74067 15.1052C5.63117 15.0523 5.53341 15.015 5.41414 15.0091C4.70047 14.9777 3.96333 15.0876 3.25162 14.9601C2.84688 14.8993 2.51448 14.707 2.16058 14.7502C1.47037 14.8051 1.66981 15.5858 2.27985 15.5309L2.2994 15.5289C2.929 15.4485 3.75216 15.6074 4.37785 15.8565C4.50298 15.9133 4.65354 15.9114 4.68091 16.0605C4.68873 16.1213 4.66527 16.1899 4.64767 16.2468C4.59684 16.3841 4.63985 16.5489 4.70829 16.6803C4.77672 16.8176 4.92141 16.9059 5.08565 16.9294C5.15409 16.9431 5.25381 16.9412 5.28509 17C5.32615 17.0961 5.2323 17.2805 5.26358 17.4021C5.28509 17.6355 5.61357 17.7748 5.68592 17.9847C5.79346 18.4436 6.22362 18.5417 6.69679 18.4044C6.89623 18.3456 7.00963 18.2024 7.1641 18.0788C7.57275 17.7591 7.94229 17.6375 8.22776 17.5414C8.41156 17.4825 8.59144 17.4531 8.73417 17.3374C9.20148 16.9294 8.97076 16.4037 8.72244 15.9369C8.64814 15.7721 8.62272 15.5976 8.58557 15.4249C8.53669 15.2072 8.392 15.017 8.24536 14.8659C7.95207 14.5168 7.79956 14.1598 7.48672 13.8028C7.32052 13.5694 7.05265 13.5243 6.81802 13.3831C6.68897 13.3007 6.63813 13.1987 6.53841 13.0712C6.36635 12.8633 6.21775 12.6946 5.94401 12.5514C5.52168 12.2591 5.20688 12.7181 5.38872 13.132Z" fill="#80CC11"/>
<path d="M4.67502 20.1442L4.68871 20.1619C4.89597 20.3561 5.10909 20.0854 5.2616 19.9383C5.49428 19.7696 5.66439 19.5322 5.83841 19.289C6.1141 18.9811 5.9479 18.5672 5.54903 18.728C5.23227 18.8771 4.46972 19.9088 4.67502 20.1442Z" fill="#80CC11"/>
<path d="M4.14713 16.7921L4.17059 16.7372C4.20579 16.6509 4.16473 16.5508 4.0787 16.5175C3.55469 16.3194 3.18514 16.6038 2.49102 16.5783C2.20555 16.5685 1.82623 16.6411 1.53099 16.6881C1.11843 16.7097 0.932677 17.153 1.33937 17.2884C1.83992 17.4551 2.62398 17.1589 3.98289 16.9196C4.05523 16.9098 4.1178 16.8608 4.14713 16.7921Z" fill="#80CC11"/>
<path d="M4.67115 17.9102L4.67506 17.8572C4.68288 17.7748 4.61836 17.6964 4.53428 17.6905C4.02005 17.6473 3.77369 17.9866 3.15778 18.1377C2.90359 18.2004 2.59271 18.3574 2.34634 18.4711C1.99049 18.5927 1.94943 19.0223 2.34634 19.04C2.83125 19.0615 3.43738 18.6084 4.56361 18.0631C4.62423 18.0357 4.66529 17.9768 4.67115 17.9102Z" fill="#80CC11"/>
<path d="M71.0172 42.146L71.0211 42.1088L68.7413 41.8989C68.7061 41.895 68.6709 41.893 68.6357 41.8911C67.5583 41.7655 66.5846 41.2359 65.8885 40.3964C65.1709 39.5314 64.8327 38.4369 64.9344 37.3169C64.9344 37.313 64.9344 37.311 64.9344 37.3071L64.9383 37.2698H64.9402L65.1494 34.9808L65.0693 34.973L64.8581 37.2993C64.8581 37.3012 64.8581 37.3051 64.8581 37.3071C64.7545 38.4271 64.2226 39.4412 63.3604 40.161C62.5235 40.8593 61.4735 41.2006 60.3903 41.13C60.3551 41.1261 60.318 41.1222 60.2828 41.1182L58.0029 40.9084L57.999 40.9456V40.9476L57.9951 40.9849L60.275 41.1947C60.3101 41.1987 60.3473 41.2006 60.3825 41.2026C61.4598 41.3301 62.4316 41.8577 63.1257 42.6972C63.8433 43.5622 64.1816 44.6567 64.0799 45.7767C64.0799 45.7806 64.0799 45.7826 64.0799 45.7865L64.074 45.8611H64.0721L63.8648 48.1128L63.902 48.1167H63.9059L63.943 48.1207L64.1503 45.8689H64.1483L64.1542 45.7944C64.1542 45.7924 64.1542 45.7885 64.1542 45.7865C64.2578 44.6665 64.7897 43.6525 65.6519 42.9326C66.4888 42.2323 67.5407 41.8911 68.6239 41.9636C68.6572 41.9676 68.6924 41.9715 68.7256 41.9734L71.0074 42.1833L71.0113 42.146H71.0172Z" fill="#FFDE59"/>
<path d="M71.9479 38.1741V38.1643L71.3163 38.1054C71.3065 38.1054 71.2967 38.1035 71.287 38.1035C70.9878 38.0682 70.7199 37.923 70.5264 37.6896C70.3269 37.4503 70.2331 37.1463 70.2624 36.8364V36.8344V36.8246L70.3211 36.191L70.2996 36.1891L70.2409 36.8344V36.8364C70.2116 37.1463 70.0649 37.4268 69.8264 37.6268C69.5937 37.821 69.3043 37.9152 69.0032 37.8956C68.9934 37.8936 68.9837 37.8936 68.9739 37.8916L68.3423 37.8328V37.8426V37.8524L68.9739 37.9113C68.9837 37.9113 68.9934 37.9132 69.0032 37.9132C69.3024 37.9485 69.5702 38.0937 69.7638 38.3271C69.9633 38.5664 70.0571 38.8704 70.0278 39.1803V39.1823L70.0258 39.2019L69.9691 39.8256H69.9789H69.9809H69.9906L70.0473 39.2019L70.0493 39.1823V39.1803C70.0786 38.8704 70.2253 38.5899 70.4638 38.3899C70.6965 38.1957 70.9878 38.1015 71.287 38.1211C71.2967 38.1231 71.3065 38.1231 71.3163 38.1251L71.9479 38.1839V38.1741Z" fill="#FFDE59"/>
<path d="M74.9981 46.0612L75 46.0435L73.952 45.9474C73.9364 45.9454 73.9188 45.9454 73.9031 45.9435C73.4065 45.8846 72.9607 45.6434 72.64 45.2569C72.3096 44.8588 72.1551 44.3566 72.202 43.8408C72.202 43.8388 72.202 43.8388 72.202 43.8368L72.204 43.8192H72.2059L72.3018 42.7659L72.2646 42.762L72.1668 43.831C72.1668 43.8329 72.1668 43.8329 72.1668 43.8349C72.1199 44.3508 71.8755 44.8156 71.4786 45.1471C71.0934 45.4688 70.6105 45.6257 70.1138 45.5924C70.0982 45.5904 70.0806 45.5884 70.0649 45.5865L69.0169 45.4904L69.015 45.508V45.51L69.013 45.5276L70.061 45.6237C70.0767 45.6257 70.0943 45.6257 70.1099 45.6277C70.6046 45.6865 71.0523 45.9278 71.371 46.3142C71.7015 46.7124 71.856 47.2145 71.809 47.7304C71.809 47.7323 71.809 47.7323 71.809 47.7343L71.8051 47.7676H71.8032L71.7074 48.8033L71.725 48.8052H71.7269L71.7445 48.8072L71.8403 47.7716H71.8384L71.8423 47.7382C71.8423 47.7362 71.8423 47.7362 71.8423 47.7343C71.8892 47.2184 72.1336 46.7535 72.5305 46.4221C72.9157 46.1004 73.3987 45.9435 73.8973 45.9768C73.9129 45.9788 73.9285 45.9807 73.9442 45.9827L74.9942 46.0788L74.9981 46.0612Z" fill="#FFDE59"/>
</svg>
