<svg width="1920" height="1158" viewBox="0 0 1920 1158" fill="none" xmlns="http://www.w3.org/2000/svg">
<path d="M1091.33 -17.0473C1055.3 3.61121 1052.72 47.8665 1020.86 70.9448C1009.07 80.9585 998.071 87.1457 988.216 97.0832C981.455 103.211 982.274 102.27 976.795 105.657C962.001 113.169 949.693 95.4063 937.173 88.1469C927.757 81.4962 912.247 76.1538 906.39 69.8444C897.793 62.2528 902.962 45.9242 908.422 32.934C912.332 22.232 915.245 12.4245 914.698 1.14911C911.64 -66.6367 894.844 -135.469 900.807 -204.001C903.169 -242.938 918.378 -275.875 911.187 -309.02C899.906 -373.935 828.007 -348.126 838.219 -290.974L838.521 -289.168C851.514 -230.147 843.579 -150.989 825.456 -89.624C821.307 -77.2556 822.645 -63.089 808.779 -59.1769C803.271 -57.9093 796.387 -59.4921 790.942 -60.7038C777.447 -64.1831 762.444 -58.8365 750.488 -51.1685C738.126 -43.4132 731.169 -29.0814 730.196 -13.3986C729.471 -6.86647 730.663 2.65523 725.184 6.042C716.496 10.713 698.206 3.50199 686.998 7.52352C665.244 11.5137 654.952 43.9909 635.689 52.4626C593.309 66.4925 587.772 108.066 604.709 151.787C612.054 170.19 626.497 179.673 639.332 193.156C673.048 229.108 687.715 263.029 699.193 289.217C706.323 306.22 710.615 323.068 722.783 335.42C765.253 376.125 812.907 349.824 854.758 322.22C869.604 313.761 885.948 309.912 901.851 304.798C921.956 298.271 938.745 283.018 951.657 267.918C982.218 237.211 1014.35 219.77 1045.42 187.083C1066.1 169.379 1068.14 143.605 1079.36 120.197C1086.12 107.351 1095.09 101.6 1106.26 91.0409C1124.33 73.0475 1138.91 57.4184 1150.11 30.3581C1174.9 -12.2033 1128.8 -38.1011 1091.33 -17.0473Z" fill="#0099DD"/>
<path d="M423.574 -24.6838L422.03 -23.1621C405.601 -1.86554 432.872 15.9155 448.052 29.2357C465.973 49.7894 489.802 63.8034 514.257 78.363C545.632 101.81 583.229 82.515 564.569 46.2211C547.837 17.3352 444.013 -45.9062 423.574 -24.6838Z" fill="#0099DD"/>
<path d="M735.372 -103.442L740.677 -101.69C749.041 -99.15 758.316 -103.862 760.497 -112.322C774.716 -163.752 744.668 -196.071 741.147 -262.056C739.727 -289.298 729.576 -324.358 722.479 -351.912C716.774 -390.817 673.472 -404.476 664.208 -364.823C652.758 -315.943 687.472 -244.411 721.776 -117.698C723.484 -110.922 728.58 -105.385 735.372 -103.442Z" fill="#0099DD"/>
<path d="M634.288 -44.0758L639.291 -44.1297C647.179 -44.2078 653.9 -50.9219 653.869 -58.9924C653.468 -108.048 619.365 -128.359 599.866 -185.218C591.748 -208.811 574.424 -236.89 561.384 -259.257C546.753 -291.825 505.92 -291.985 507.76 -254.461C509.897 -208.413 557.906 -154.954 618.894 -52.8438C622.099 -47.4103 627.932 -43.9866 634.288 -44.0758Z" fill="#0099DD"/>
<path d="M990.328 1013.39C951.035 1007.02 922.391 1038.4 884.744 1036.35C869.919 1036.68 857.997 1034.64 844.661 1036.09C835.929 1036.57 837.106 1036.36 830.983 1035.58C815.435 1032.24 816.999 1011.58 812.062 998.619C809.069 987.983 800.749 974.642 800.199 966.408C798.383 955.566 812.09 946.533 823.998 940.16C833.371 934.555 841.46 929.013 847.861 920.29C886.514 867.986 915.573 806.608 961.39 759.195C986.659 731.638 1017.87 716.303 1032.53 687.289C1063.33 632.156 994.223 607.955 967.316 656.664L966.45 658.19C940.485 709.969 886.783 764.101 836.241 798.837C825.685 805.539 818.126 816.891 805.443 811.431C800.577 809.049 796.409 803.714 793.088 799.525C785.143 788.786 770.747 783.707 757.217 782.196C743.333 780.505 729.501 786.973 719.307 798.059C714.824 802.484 709.961 810.291 703.838 809.504C694.551 807.735 685.29 791.323 674.519 787.55C655.917 777.385 628.646 795.346 609.192 790.021C569.174 774.875 539.95 802.479 526.16 845.25C520.515 863.383 525.54 879.162 526.953 896.949C530.343 944.068 520.779 978.173 513.511 1004.6C508.552 1021.56 501.574 1036.69 503.173 1053.23C510.209 1109.18 561.562 1118.37 609.381 1123.09C625.54 1125.76 640.03 1132.76 654.956 1138.56C673.862 1145.84 695.569 1144.62 714.298 1141.18C755.587 1136.78 790.034 1143.19 832.899 1137.62C858.985 1136.93 876.066 1118.98 898.549 1108.33C911.341 1102.85 921.488 1103.98 936.175 1102.87C960.492 1100.38 980.784 1097.56 1005.46 1084.17C1049.61 1067.46 1030.94 1020.35 990.328 1013.39Z" fill="#FF9900"/>
<path d="M497.88 604.521L495.813 604.721C470.725 610.654 480.288 640.356 483.545 659.437C484.474 685.557 493.75 710.376 503.163 735.98C512.361 772.377 551.997 780.716 560.021 742.433C565.007 710.828 525.909 601.065 497.88 604.521Z" fill="#FF9900"/>
<path d="M777.528 734.158L780.419 738.665C785.112 745.607 794.86 747.699 801.592 742.719C843.229 713.021 840.377 670.821 877.598 619.577C892.989 598.442 906.603 566.215 917.957 541.42C937.201 509.015 913.216 472.702 882.378 496.625C844.341 526.096 826.99 600.303 776.015 715.338C773.195 721.412 773.646 728.612 777.528 734.158Z" fill="#FF9900"/>
<path d="M666.439 717.315L670.196 720.295C676.114 725 685.171 724.06 690.021 718.034C719.342 681.276 706.22 645.566 726.037 591.468C734.24 569.005 738.299 537.643 742.098 513.121C750.871 480.044 720.573 455.269 699.285 484.312C673.072 519.879 676.53 588.66 660.274 701.493C659.379 707.473 661.654 713.544 666.439 717.315Z" fill="#FF9900"/>
<path d="M454.986 180.958C416.669 202.928 413.922 249.993 380.044 274.536C367.503 285.186 355.806 291.766 345.327 302.334C338.136 308.851 339.007 307.85 333.18 311.452C317.447 319.441 304.358 300.551 291.042 292.831C281.029 285.758 264.535 280.076 258.306 273.366C249.163 265.293 254.66 247.927 260.467 234.113C264.625 222.731 267.723 212.301 267.141 200.31C263.889 128.221 246.027 55.0191 252.368 -17.8634C254.881 -59.2721 271.054 -94.3005 263.407 -129.55C251.41 -198.585 174.946 -171.138 185.807 -110.358L186.128 -108.437C199.946 -45.6696 191.507 38.5134 172.233 103.774C167.822 116.928 169.244 131.994 154.498 136.154C148.64 137.502 141.319 135.819 135.529 134.53C121.177 130.83 105.221 136.516 92.5066 144.671C79.36 152.919 71.9611 168.16 70.9265 184.839C70.1559 191.785 71.4228 201.912 65.5963 205.513C56.3565 210.481 36.9052 202.812 24.9863 207.089C1.85167 211.332 -9.09368 245.871 -29.5796 254.881C-74.6505 269.801 -80.539 314.015 -62.5264 360.511C-54.7151 380.082 -39.3559 390.166 -25.7059 404.506C10.1507 442.74 25.7482 478.814 37.9557 506.665C45.5384 524.748 50.1027 542.665 63.0426 555.801C108.208 599.09 158.888 571.12 203.396 541.763C219.184 532.767 236.566 528.674 253.478 523.235C274.859 516.293 292.715 500.073 306.447 484.014C338.947 451.357 373.117 432.81 406.16 398.047C428.157 379.22 430.326 351.809 442.254 326.915C449.449 313.254 458.985 307.138 470.86 295.908C490.079 276.773 505.589 260.151 517.498 231.373C543.861 186.11 494.839 158.568 454.986 180.958Z" fill="#FF2222"/>
<path d="M-255.161 172.837L-256.802 174.455C-274.274 197.104 -245.272 216.014 -229.128 230.179C-210.07 252.038 -184.729 266.942 -158.721 282.426C-125.354 307.361 -85.37 286.841 -105.215 248.243C-123.009 217.523 -233.424 150.267 -255.161 172.837Z" fill="#FF2222"/>
<path d="M76.4308 89.0791L82.0729 90.9419C90.9682 93.6436 100.831 88.6326 103.151 79.6353C118.272 24.9407 86.3174 -9.42982 82.5727 -79.6045C81.0623 -108.576 70.267 -145.862 62.7196 -175.164C56.652 -216.539 10.6015 -231.066 0.749847 -188.895C-11.4275 -136.912 25.4903 -60.8392 61.9721 73.9186C63.7879 81.1239 69.2084 87.0129 76.4308 89.0791Z" fill="#FF2222"/>
<path d="M-31.0698 152.214L-25.749 152.157C-17.3603 152.074 -10.2133 144.933 -10.2454 136.35C-10.6728 84.1802 -46.9406 62.5805 -67.6774 2.11196C-76.3105 -22.9794 -94.7342 -52.8405 -108.602 -76.6272C-124.162 -111.262 -167.587 -111.433 -165.63 -71.5267C-163.358 -22.5556 -112.301 34.297 -47.4412 142.889C-44.033 148.668 -37.8289 152.309 -31.0698 152.214Z" fill="#FF2222"/>
<path d="M-59.4606 1150.3C-22.4207 1145.92 3.122 1176.46 38.4465 1176.06C52.31 1176.97 63.5529 1175.55 75.9775 1177.44C84.1326 1178.24 83.039 1178 88.8026 1177.51C103.492 1175.01 102.864 1155.62 108.01 1143.68C111.242 1133.85 119.57 1121.69 120.418 1114.01C122.557 1103.93 110.091 1094.92 99.2025 1088.48C90.6557 1082.85 83.3073 1077.33 77.6688 1068.91C43.6025 1018.38 18.8852 959.753 -22.0857 913.516C-44.6241 886.698 -73.217 871.08 -85.7663 843.327C-112.365 790.472 -46.699 770.614 -23.483 817.299L-22.7347 818.763C-0.524146 868.283 47.5546 921.128 93.4615 955.689C103.072 962.39 109.688 973.323 121.781 968.725C126.432 966.692 130.55 961.867 133.829 958.08C141.7 948.349 155.382 944.177 168.108 943.311C181.173 942.289 193.86 948.903 202.953 959.694C206.971 964.017 211.207 971.522 216.97 971.033C225.736 969.753 235.069 954.765 245.304 951.669C263.128 942.907 287.929 960.823 306.356 956.626C344.429 944.067 370.668 971.089 381.846 1011.68C386.396 1028.89 381.054 1043.45 379.011 1060.05C373.932 1104.02 381.504 1136.33 387.238 1161.36C391.194 1177.44 397.114 1191.89 394.947 1207.31C386.097 1259.39 337.654 1265.92 292.7 1268.4C277.466 1270.25 263.619 1276.22 249.412 1281.04C231.419 1287.09 211.149 1285.07 193.756 1281.09C155.284 1275.29 122.779 1279.91 82.8788 1272.96C58.488 1271.26 43.2257 1253.76 22.6109 1242.88C10.8577 1237.23 1.31336 1237.88 -12.3899 1236.24C-35.0519 1232.94 -53.9331 1229.47 -76.4892 1215.94C-117.142 1198.51 -97.7543 1155.17 -59.4606 1150.3Z" fill="#BB33AA"/>
<path d="M418.06 787.485L419.988 787.757C443.232 794.326 433.078 821.742 429.257 839.472C427.33 863.885 417.643 886.743 407.795 910.329C397.712 944.028 360.272 950.23 354.31 914.069C350.921 884.282 391.963 783.116 418.06 787.485Z" fill="#BB33AA"/>
<path d="M151.039 897.521L148.15 901.623C143.477 907.931 134.267 909.495 128.166 904.56C90.3922 875.076 94.7701 835.688 62.0017 786.213C48.4492 765.805 37.0103 735.087 27.3852 711.417C10.6826 680.305 34.6043 647.283 62.5033 670.926C96.9166 700.053 110.155 770.219 153.217 879.964C155.611 885.765 154.898 892.486 151.039 897.521Z" fill="#BB33AA"/>
<path d="M255.71 886.249L252.073 888.888C246.342 893.052 237.902 891.806 233.606 885.969C207.646 850.373 221.375 817.476 205.013 766.034C198.244 744.674 195.714 715.153 193.15 692.044C186.276 660.726 215.64 638.761 234.392 666.809C257.491 701.164 251.47 765.409 262.121 871.688C262.717 877.322 260.342 882.913 255.71 886.249Z" fill="#BB33AA"/>
<path d="M1505.27 109.583C1486.32 120.451 1484.96 143.732 1468.2 155.872C1462 161.14 1456.21 164.395 1451.03 169.622C1447.47 172.846 1447.9 172.351 1445.02 174.132C1437.24 178.084 1430.76 168.74 1424.18 164.921C1419.22 161.423 1411.07 158.612 1407.98 155.293C1403.46 151.3 1406.18 142.71 1409.05 135.876C1411.11 130.247 1412.64 125.087 1412.35 119.156C1410.75 83.4968 1401.91 47.2874 1405.05 11.236C1406.29 -9.24687 1414.29 -26.5737 1410.51 -44.0097C1404.57 -78.1584 1366.75 -64.5817 1372.12 -34.5165L1372.28 -33.5666C1379.12 -2.5184 1374.94 39.1228 1365.41 71.4043C1363.23 77.9107 1363.93 85.3631 1356.64 87.4211C1353.74 88.0879 1350.12 87.2552 1347.25 86.6178C1340.15 84.7876 1332.26 87.6001 1325.97 91.6339C1319.47 95.7136 1315.81 103.253 1315.3 111.503C1314.92 114.939 1315.54 119.948 1312.66 121.73C1308.09 124.187 1298.47 120.393 1292.57 122.509C1281.13 124.608 1275.72 141.693 1265.58 146.149C1243.29 153.53 1240.37 175.4 1249.28 198.399C1253.15 208.08 1260.75 213.069 1267.5 220.162C1285.23 239.074 1292.95 256.918 1298.99 270.695C1302.74 279.64 1305 288.502 1311.4 295C1333.74 316.413 1358.81 302.578 1380.82 288.056C1388.63 283.606 1397.23 281.582 1405.6 278.891C1416.17 275.458 1425.01 267.434 1431.8 259.49C1447.87 243.337 1464.78 234.162 1481.12 216.967C1492 207.654 1493.07 194.095 1498.97 181.781C1502.53 175.024 1507.25 171.998 1513.12 166.444C1522.63 156.978 1530.3 148.756 1536.19 134.521C1549.23 112.132 1524.99 98.5081 1505.27 109.583Z" fill="#FF2222"/>
<path d="M1154 105.566L1153.19 106.367C1144.54 117.57 1158.89 126.924 1166.87 133.931C1176.3 144.743 1188.84 152.115 1201.7 159.774C1218.21 172.109 1237.98 161.959 1228.17 142.866C1219.37 127.67 1164.75 94.4022 1154 105.566Z" fill="#FF2222"/>
<path d="M1318.02 64.1352L1320.81 65.0567C1325.21 66.3931 1330.09 63.9144 1331.24 59.4639C1338.72 32.4091 1322.91 15.4077 1321.06 -19.3043C1320.31 -33.6351 1314.97 -52.0785 1311.24 -66.5732C1308.24 -87.0394 1285.46 -94.2249 1280.58 -73.3652C1274.56 -47.6517 1292.82 -10.0221 1310.87 56.6361C1311.77 60.2002 1314.45 63.1132 1318.02 64.1352Z" fill="#FF2222"/>
<path d="M1264.84 95.3651L1267.48 95.3367C1271.63 95.2956 1275.16 91.7637 1275.15 87.5181C1274.93 61.712 1256.99 51.0277 1246.74 21.1168C1242.47 8.70538 1233.35 -6.06549 1226.49 -17.8316C1218.8 -34.964 1197.32 -35.0485 1198.28 -15.3086C1199.41 8.91499 1224.66 37.0372 1256.75 90.7526C1258.43 93.6109 1261.5 95.412 1264.84 95.3651Z" fill="#FF2222"/>
<path d="M1712.27 1268.58C1693.32 1279.45 1691.96 1302.73 1675.2 1314.87C1669 1320.14 1663.21 1323.39 1658.03 1328.62C1654.47 1331.85 1654.9 1331.35 1652.02 1333.13C1644.24 1337.08 1637.76 1327.74 1631.18 1323.92C1626.22 1320.42 1618.07 1317.61 1614.98 1314.29C1610.46 1310.3 1613.18 1301.71 1616.05 1294.88C1618.11 1289.25 1619.64 1284.09 1619.35 1278.16C1617.75 1242.5 1608.91 1206.29 1612.05 1170.24C1613.29 1149.75 1621.29 1132.43 1617.51 1114.99C1611.57 1080.84 1573.75 1094.42 1579.12 1124.48L1579.28 1125.43C1586.12 1156.48 1581.94 1198.12 1572.41 1230.4C1570.23 1236.91 1570.93 1244.36 1563.64 1246.42C1560.74 1247.09 1557.12 1246.25 1554.25 1245.62C1547.15 1243.79 1539.26 1246.6 1532.97 1250.63C1526.47 1254.71 1522.81 1262.25 1522.3 1270.5C1521.92 1273.94 1522.54 1278.95 1519.66 1280.73C1515.09 1283.19 1505.47 1279.39 1499.57 1281.51C1488.13 1283.61 1482.72 1300.69 1472.58 1305.15C1450.29 1312.53 1447.37 1334.4 1456.28 1357.4C1460.15 1367.08 1467.75 1372.07 1474.5 1379.16C1492.23 1398.07 1499.95 1415.92 1505.99 1429.69C1509.74 1438.64 1512 1447.5 1518.4 1454C1540.74 1475.41 1565.81 1461.58 1587.82 1447.06C1595.63 1442.61 1604.23 1440.58 1612.6 1437.89C1623.17 1434.46 1632.01 1426.43 1638.8 1418.49C1654.87 1402.34 1671.78 1393.16 1688.12 1375.97C1699 1366.65 1700.07 1353.09 1705.97 1340.78C1709.53 1334.02 1714.25 1331 1720.12 1325.44C1729.63 1315.98 1737.3 1307.76 1743.19 1293.52C1756.23 1271.13 1731.99 1257.51 1712.27 1268.58Z" fill="#FF2222"/>
<path d="M1361 1264.57L1360.19 1265.37C1351.54 1276.57 1365.89 1285.92 1373.87 1292.93C1383.3 1303.74 1395.84 1311.11 1408.7 1318.77C1425.21 1331.11 1444.98 1320.96 1435.17 1301.87C1426.37 1286.67 1371.75 1253.4 1361 1264.57Z" fill="#FF2222"/>
<path d="M1525.02 1223.13L1527.81 1224.06C1532.21 1225.39 1537.09 1222.91 1538.24 1218.46C1545.72 1191.41 1529.91 1174.41 1528.06 1139.7C1527.31 1125.36 1521.97 1106.92 1518.24 1092.43C1515.24 1071.96 1492.46 1064.77 1487.58 1085.63C1481.56 1111.35 1499.82 1148.98 1517.87 1215.64C1518.77 1219.2 1521.45 1222.11 1525.02 1223.13Z" fill="#FF2222"/>
<path d="M1471.84 1254.36L1474.48 1254.34C1478.63 1254.3 1482.16 1250.76 1482.15 1246.52C1481.93 1220.71 1463.99 1210.03 1453.74 1180.12C1449.47 1167.7 1440.35 1152.93 1433.49 1141.17C1425.8 1124.04 1404.32 1123.95 1405.28 1143.69C1406.41 1167.91 1431.66 1196.04 1463.75 1249.75C1465.43 1252.61 1468.5 1254.41 1471.84 1254.36Z" fill="#FF2222"/>
<path d="M1873.83 1142.28C1856.59 1116.54 1823.54 1116.92 1804.72 1094.41C1796.65 1086.16 1791.48 1078.3 1783.58 1071.48C1778.67 1066.77 1779.41 1067.33 1776.61 1063.43C1770.25 1052.81 1782.83 1042.73 1787.58 1033.04C1792.04 1025.69 1795.21 1013.88 1799.6 1009.19C1804.8 1002.4 1817.22 1005.4 1827.17 1008.79C1835.33 1011.14 1842.78 1012.8 1851.14 1011.81C1901.41 1006.02 1951.75 989.96 2003.04 990.844C2032.13 990.584 2057.43 1000.19 2081.71 993.124C2129.42 981.366 2106.5 929.213 2064.51 939.773L2063.18 940.091C2019.94 952.816 1960.64 951.016 1914.05 940.713C1904.63 938.268 1894.16 939.997 1890.53 929.884C1889.3 925.852 1890.12 920.649 1890.74 916.535C1892.63 906.315 1887.87 895.43 1881.55 886.933C1875.14 878.138 1864.12 873.705 1852.4 873.794C1847.5 873.594 1840.48 874.973 1837.68 871.073C1833.75 864.851 1838.17 850.87 1834.59 842.741C1830.5 826.763 1805.8 820.79 1798.5 806.898C1785.87 776.095 1754.65 774.131 1723 788.998C1709.69 795.416 1703.39 806.652 1694.02 816.9C1669.02 843.847 1644.54 856.517 1625.66 866.414C1613.38 872.6 1601.06 876.666 1592.51 886.358C1564.42 920.064 1586.46 954.154 1609.17 983.859C1616.23 994.466 1619.94 1006.43 1624.57 1017.99C1630.47 1032.61 1642.68 1044.31 1654.59 1053.13C1679.02 1074.28 1693.66 1097.28 1719.59 1118.7C1733.83 1133.17 1753.11 1133.35 1771.11 1140.48C1781.01 1144.85 1785.76 1151.22 1794.19 1158.98C1808.51 1171.5 1820.9 1181.54 1841.61 1188.46C1874.56 1204.7 1891.44 1169.07 1873.83 1142.28Z" fill="#FF9900"/>
<path d="M1844.9 645.092L1843.69 644.023C1827 632.904 1815.18 654.114 1806.06 666.098C1791.69 680.496 1782.5 698.95 1772.94 717.898C1757.12 742.456 1773.43 769.427 1799.46 753.663C1820.08 739.718 1861.75 659.199 1844.9 645.092Z" fill="#FF9900"/>
<path d="M1919.66 872.978L1918.63 877.016C1917.17 883.37 1921.16 890.026 1927.57 891.21C1966.56 899.122 1989.05 875.093 2037.96 869.053C2058.15 866.585 2083.71 857.216 2103.84 850.508C2132.49 844.247 2140.41 811.324 2110.43 806.487C2073.47 800.502 2022.05 830.035 1929.56 862.124C1924.61 863.746 1920.75 867.825 1919.66 872.978Z" fill="#FF9900"/>
<path d="M1870.25 800.852L1870.55 804.571C1871.02 810.436 1876.36 815.087 1882.36 814.646C1918.84 811.805 1932.18 785.381 1973.47 767.927C1990.6 760.665 2010.6 746.321 2026.56 735.461C2050.03 722.888 2048.03 692.501 2020.21 695.814C1986.07 699.791 1948.78 738.279 1875.98 788.945C1872.1 791.61 1869.86 796.128 1870.25 800.852Z" fill="#FF9900"/>
<path d="M1964.38 443.536C1931.54 433.408 1903.32 456.837 1871.37 450.6C1858.65 449.122 1848.7 445.963 1837.12 445.614C1829.6 444.985 1830.63 444.949 1825.49 443.547C1812.59 438.841 1816.38 421.366 1813.7 409.694C1812.41 400.243 1806.88 387.845 1807.39 380.739C1807.13 371.252 1819.93 365.159 1830.87 361.126C1839.55 357.448 1847.12 353.671 1853.64 346.973C1892.91 306.846 1925.06 257.819 1969.88 222.726C1994.76 202.168 2023.27 192.768 2039.26 169.702C2072.16 126.222 2015.95 97.307 1987.14 135.757L1986.22 136.959C1957.86 178.146 1905.5 218.046 1858.15 241.736C1848.32 246.211 1840.51 255.02 1830.31 248.842C1826.44 246.226 1823.51 241.168 1821.16 237.191C1815.65 227.063 1803.94 221.008 1792.55 218.106C1780.88 215.008 1768.28 218.893 1758.25 227.16C1753.89 230.411 1748.8 236.508 1743.66 235.107C1735.93 232.489 1729.96 217.354 1721.2 212.846C1706.5 201.941 1681.05 214.055 1665.05 207.188C1632.63 189.476 1604.36 209.603 1587.47 244.536C1580.49 259.371 1582.91 273.461 1582 288.838C1579.3 329.534 1567.06 357.559 1557.7 379.29C1551.44 393.205 1543.68 405.314 1543.08 419.649C1542.44 468.322 1585.26 482.295 1625.58 492.021C1639.08 496.225 1650.64 503.937 1662.72 510.668C1678.02 519.143 1696.72 520.685 1713.15 519.969C1748.98 521.114 1777.67 530.699 1814.99 531.035C1837.38 533.549 1854.12 520.228 1874.61 513.794C1886.2 510.633 1894.74 512.809 1907.43 513.6C1928.52 514.37 1946.21 514.366 1968.9 505.859C2008.64 496.819 1998.28 454.314 1964.38 443.536Z" fill="#7ED957"/>
<path d="M1591.93 35.3241L1590.14 35.2497C1567.98 37.3384 1572.62 63.8742 1573.14 80.5777C1570.83 103.024 1575.81 125.35 1580.81 148.364C1584.34 180.581 1617.25 192.427 1628.66 160.646C1636.68 134.214 1616.31 35.7032 1591.93 35.3241Z" fill="#7ED957"/>
<path d="M1815.64 179.445L1817.57 183.643C1820.76 190.137 1828.85 193.086 1835.19 189.628C1874.33 169.187 1876.91 132.762 1914.84 93.3712C1930.51 77.1291 1945.99 51.1914 1958.65 31.3397C1978.96 5.91959 1962.77 -27.985 1933.55 -11.1967C1897.52 9.47911 1873.85 70.8692 1816.58 163.172C1813.45 168.03 1812.98 174.24 1815.64 179.445Z" fill="#7ED957"/>
<path d="M1722.65 151.827L1725.51 154.822C1730.01 159.549 1737.86 159.823 1742.73 155.247C1772.17 127.303 1765.2 95.2067 1788.58 51.3052C1798.27 33.0722 1805.47 6.73806 1811.63 -13.7793C1823.07 -41.0197 1800.11 -65.8087 1778.45 -43.5065C1751.81 -16.2115 1746.58 43.0146 1719.26 137.564C1717.78 142.571 1719 148.033 1722.65 151.827Z" fill="#7ED957"/>
<path d="M1167.07 623.486C1189.23 642.227 1185.43 672.969 1204.41 692.847C1211.25 701.216 1218.03 706.856 1223.55 714.928C1227.43 719.992 1226.98 719.242 1230.32 722.261C1239.54 729.289 1250.24 718.633 1259.76 715.222C1267.07 711.838 1278.4 710.122 1283.23 706.524C1290.09 702.391 1288.6 690.516 1286.48 680.9C1285.14 673.051 1284.38 665.944 1286.18 658.263C1296.83 612.06 1317.05 566.87 1321.59 519.017C1324.88 491.958 1318.58 467.403 1327.7 445.53C1343.64 402.337 1389.8 429.14 1375.57 467.133L1375.14 468.336C1358.77 507.262 1354.24 562.667 1358.96 607.128C1360.25 616.152 1357.54 625.72 1366.58 630.157C1370.21 631.722 1375.14 631.503 1379.03 631.356C1388.75 630.667 1398.38 636.233 1405.63 643.011C1413.15 649.899 1416.13 660.627 1414.82 671.528C1414.49 676.109 1412.47 682.503 1415.81 685.521C1421.19 689.827 1434.67 687.177 1441.87 691.354C1456.32 696.84 1459.3 720.458 1471.47 728.71C1498.83 743.696 1497.39 772.968 1480.24 800.881C1472.87 812.603 1461.75 817.299 1451.22 824.948C1423.52 845.406 1409.16 866.87 1397.97 883.421C1390.92 894.209 1385.85 905.247 1375.93 912.202C1341.61 934.823 1312.17 910.739 1286.89 886.49C1277.75 878.804 1267.01 874.098 1256.72 868.578C1243.73 861.557 1234.11 848.957 1227.14 836.951C1210.01 811.993 1190.12 795.955 1172.89 769.571C1160.91 754.796 1162.75 736.824 1158 719.322C1154.97 709.64 1149.53 704.557 1143.19 695.892C1133.03 681.247 1124.98 668.666 1120.7 648.656C1109.03 616.278 1143.97 604.291 1167.07 623.486Z" fill="#BB33AA"/>
<path d="M1626.98 702.433L1627.85 703.674C1636.45 720.382 1615.47 729.164 1603.36 736.405C1588.45 748.272 1570.3 754.899 1551.66 761.822C1527.14 773.981 1503.73 755.979 1521.13 733.387C1536.28 715.644 1615.61 685.27 1626.98 702.433Z" fill="#BB33AA"/>
<path d="M1422.61 608.989L1418.75 609.524C1412.68 610.216 1406.9 605.808 1406.46 599.718C1403.18 562.578 1427.9 544.155 1438.64 499.247C1443.05 480.703 1454.45 457.887 1462.8 439.844C1471.63 413.824 1503.11 409.896 1504.48 438.318C1506.19 473.356 1473.31 518.142 1433.76 600.906C1431.73 605.347 1427.53 608.51 1422.61 608.989Z" fill="#BB33AA"/>
<path d="M1484.6 662.537L1481.17 661.869C1475.76 660.821 1471.99 655.359 1473.02 649.816C1479.49 616.151 1505.49 606.491 1526.06 569.871C1534.61 554.679 1550.06 537.565 1561.84 523.837C1576 503.299 1604.09 508.337 1598.09 533.895C1590.82 565.274 1551.08 595.962 1496.29 658.451C1493.4 661.782 1488.96 663.399 1484.6 662.537Z" fill="#BB33AA"/>
<path d="M1337.43 1088.45C1325.07 1095.54 1324.19 1110.72 1313.26 1118.63C1309.22 1122.07 1305.44 1124.19 1302.07 1127.6C1299.75 1129.7 1300.03 1129.37 1298.15 1130.54C1293.07 1133.11 1288.85 1127.02 1284.56 1124.53C1281.33 1122.25 1276.01 1120.42 1274 1118.25C1271.05 1115.65 1272.83 1110.05 1274.7 1105.6C1276.04 1101.93 1277.04 1098.56 1276.85 1094.7C1275.8 1071.45 1270.04 1047.84 1272.09 1024.34C1272.9 1010.99 1278.11 999.691 1275.65 988.324C1271.78 966.062 1247.12 974.913 1250.62 994.513L1250.73 995.132C1255.18 1015.37 1252.46 1042.52 1246.25 1063.56C1244.82 1067.81 1245.28 1072.67 1240.53 1074.01C1238.64 1074.44 1236.28 1073.9 1234.41 1073.48C1229.78 1072.29 1224.64 1074.12 1220.54 1076.75C1216.3 1079.41 1213.91 1084.33 1213.58 1089.71C1213.33 1091.95 1213.74 1095.21 1211.86 1096.37C1208.88 1097.98 1202.61 1095.5 1198.76 1096.88C1191.3 1098.25 1187.77 1109.39 1181.17 1112.29C1166.63 1117.1 1164.73 1131.36 1170.54 1146.36C1173.06 1152.67 1178.01 1155.92 1182.42 1160.54C1193.98 1172.87 1199.01 1184.51 1202.95 1193.49C1205.39 1199.32 1206.86 1205.1 1211.04 1209.33C1225.6 1223.29 1241.94 1214.27 1256.3 1204.81C1261.39 1201.9 1266.99 1200.58 1272.45 1198.83C1279.34 1196.59 1285.1 1191.36 1289.53 1186.18C1300.01 1175.65 1311.03 1169.67 1321.68 1158.46C1328.78 1152.39 1329.48 1143.55 1333.32 1135.52C1335.64 1131.12 1338.72 1129.14 1342.55 1125.52C1348.74 1119.35 1353.75 1113.99 1357.59 1104.71C1366.09 1090.12 1350.28 1081.23 1337.43 1088.45Z" fill="#0099DD"/>
<path d="M1108.42 1085.84L1107.89 1086.36C1102.26 1093.66 1111.61 1099.76 1116.82 1104.33C1122.96 1111.38 1131.14 1116.18 1139.52 1121.18C1150.28 1129.22 1163.18 1122.6 1156.78 1110.15C1151.04 1100.25 1115.43 1078.56 1108.42 1085.84Z" fill="#0099DD"/>
<path d="M1215.35 1058.83L1217.17 1059.43C1220.04 1060.3 1223.22 1058.68 1223.97 1055.78C1228.85 1038.14 1218.54 1027.06 1217.33 1004.43C1216.85 995.087 1213.37 983.064 1210.93 973.614C1208.98 960.272 1194.12 955.588 1190.95 969.186C1187.02 985.95 1198.93 1010.48 1210.69 1053.94C1211.28 1056.26 1213.02 1058.16 1215.35 1058.83Z" fill="#0099DD"/>
<path d="M1180.69 1079.19L1182.4 1079.17C1185.11 1079.14 1187.41 1076.84 1187.4 1074.07C1187.26 1057.25 1175.57 1050.28 1168.88 1030.78C1166.1 1022.69 1160.16 1013.06 1155.68 1005.39C1150.67 994.221 1136.66 994.166 1137.29 1007.03C1138.03 1022.83 1154.49 1041.16 1175.41 1076.18C1176.51 1078.04 1178.51 1079.22 1180.69 1079.19Z" fill="#0099DD"/>
</svg>
