<svg width="66" height="66" viewBox="0 0 66 66" fill="none" xmlns="http://www.w3.org/2000/svg">
<rect width="66" height="66" rx="19" fill="#8C52FE"/>
<path d="M49.6385 47.3523C48.2893 46.6578 47.5914 45.6401 46.8877 44.5955C45.8932 43.1201 45.7943 42.3771 45.2069 41.1979C43.3459 37.488 39.682 35.6088 38.862 35.1888C37.8733 34.6827 36.2798 33.9988 34.1221 33.6327C35.2795 33.7619 37.7453 33.8804 40.4671 32.782C41.6012 32.3243 44.0031 31.3497 45.5093 28.889C48.0973 25.0552 46.1142 19.4069 41.8222 17.5277C39.1818 16.1385 35.419 15.9232 32.8194 16.0201C26.8699 16.0201 20.9379 16.0255 15 16.0308C15.6107 19.1377 15.5641 22.0238 15.8491 25.6529C16.5295 34.4296 15.7037 40.9341 15.1745 49C19.2513 49 23.3281 48.9946 27.3991 48.9946C26.9979 46.6039 26.6838 43.9224 26.5559 40.9987C26.4395 38.3926 26.4861 35.9749 26.6257 33.7835C27.6201 33.7404 29.3067 33.8104 30.5978 34.8442C31.3713 35.4634 31.697 36.1796 31.9761 36.8257C34.5874 42.8294 34.6979 43.4324 35.5702 44.5363C35.8843 44.9347 37.1114 46.4208 39.3156 47.5785C41.2348 48.5854 43.0435 48.8869 44.131 48.9892C47.0854 48.9892 50.0398 48.9838 53 48.9838C52.9709 48.6769 52.9477 48.37 52.9186 48.0631C52.2032 48.0793 50.9296 48.02 49.6385 47.3523ZM31.3771 31.9151C29.2137 32.8143 27.2596 32.5289 26.5849 32.405C26.521 27.3167 26.4512 22.2338 26.3872 17.1454C27.1258 17.0485 28.1959 16.9785 29.4579 17.1454C30.3535 17.2639 31.7202 17.4362 32.9008 18.1523C35.2969 19.6008 35.6691 22.5245 35.8261 23.7091C35.9657 24.8183 36.2449 26.9883 34.82 29.1313C33.6511 30.8812 31.9878 31.662 31.3771 31.9151Z" fill="white"/>
<g clip-path="url(#clip0_46_128)">
<path d="M32.9772 32.9089C32.966 32.8869 32.9611 32.8614 32.9682 32.8377C32.9764 32.8086 32.9975 32.7787 33.0289 32.7726C33.0449 32.7696 33.0628 32.7751 33.0775 32.7829C33.0919 32.7904 33.114 32.7941 33.1219 32.7768C33.1283 32.759 33.1163 32.7351 33.1083 32.7203C33.0945 32.7006 33.0644 32.6504 33.0227 32.5798C33.075 32.5478 33.1273 32.5159 33.1795 32.4839C33.1964 32.4743 33.2321 32.4705 33.232 32.4992C33.2307 32.5215 33.2132 32.5409 33.2152 32.564C33.2165 32.5904 33.2338 32.6127 33.2573 32.624C33.2892 32.639 33.3269 32.6365 33.3582 32.6219C33.3585 32.6217 33.3587 32.6216 33.359 32.6215C33.3896 32.6053 33.4143 32.5767 33.4215 32.5422C33.4268 32.5166 33.4195 32.4893 33.3991 32.4724C33.382 32.4569 33.356 32.4592 33.3374 32.4467C33.3145 32.4295 33.3391 32.4033 33.3569 32.3956C33.4139 32.3732 33.4709 32.3507 33.5279 32.3283C33.559 32.4042 33.5809 32.4585 33.5882 32.4813C33.5951 32.4966 33.6069 32.5207 33.625 32.5264C33.6435 32.5304 33.654 32.5106 33.6566 32.4946C33.6593 32.4782 33.6657 32.4605 33.6778 32.4495C33.7016 32.4282 33.7382 32.4294 33.7662 32.4404C33.7894 32.449 33.8068 32.4684 33.8176 32.4905C33.8314 32.5181 33.8381 32.5513 33.8282 32.5814C33.814 32.6261 33.7699 32.6432 33.7271 32.6261C33.7224 32.6243 33.7181 32.6221 33.7135 32.6202C33.7016 32.6146 33.6855 32.6159 33.6767 32.6267C33.6632 32.643 33.6742 32.6711 33.6827 32.6888C33.712 32.7361 33.7412 32.7834 33.7705 32.8307C33.7293 32.8562 33.6882 32.8817 33.647 32.9071C33.627 32.9192 33.6047 32.9318 33.5802 32.9289C33.5702 32.9276 33.5596 32.9213 33.5569 32.9111C33.5525 32.8936 33.5646 32.8766 33.57 32.8606C33.5789 32.8339 33.5699 32.801 33.5466 32.7836C33.5159 32.7595 33.4692 32.7606 33.4368 32.7791C33.4025 32.7938 33.3735 32.8304 33.3742 32.8694C33.374 32.8985 33.3948 32.9256 33.4214 32.9346C33.4374 32.9399 33.4583 32.9405 33.4696 32.9545C33.4761 32.9628 33.4747 32.9751 33.4697 32.984C33.4572 33.0052 33.4337 33.0154 33.4121 33.0241C33.3669 33.0416 33.3218 33.0591 33.2767 33.0766C33.2567 33.0247 33.2366 32.9728 33.2166 32.9209C33.2076 32.9034 33.1919 32.8777 33.1707 32.8786C33.1568 32.8792 33.146 32.8912 33.1433 32.9041C33.142 32.9089 33.1412 32.9137 33.1399 32.9185C33.1276 32.963 33.0874 32.9878 33.0432 32.9723C33.0132 32.962 32.9908 32.9366 32.9772 32.9089Z" fill="white"/>
</g>
<defs>
<clipPath id="clip0_46_128">
<rect width="0.938018" height="0.598391" fill="white" transform="translate(33.9485 32.7902) rotate(156.436)"/>
</clipPath>
</defs>
</svg>
